<svg width="20" height="20" viewBox="0 0 20 20" fill="none" xmlns="http://www.w3.org/2000/svg">
<path d="M8.28241 11.7184C6.37356 9.80941 5.94255 7.90043 5.84531 7.13559C5.81814 6.92411 5.89091 6.71203 6.0422 6.56179L7.58693 5.01764C7.81417 4.79053 7.85449 4.43659 7.68417 4.16418L5.22466 0.344831C5.03623 0.0431896 4.64932 -0.0656758 4.33126 0.0934493L0.382872 1.95312C0.125666 2.07978 -0.0256186 2.35308 0.00358427 2.6383C0.210469 4.60384 1.06731 9.43562 5.81531 14.1843C10.5633 18.933 15.3941 19.7895 17.3605 19.9964C17.6457 20.0256 17.919 19.8743 18.0456 19.6171L19.9052 15.6684C20.0637 15.351 19.9556 14.9652 19.6552 14.7764L15.8361 12.3174C15.5639 12.1469 15.21 12.1869 14.9827 12.4139L13.4387 13.9588C13.2884 14.1101 13.0764 14.1828 12.8649 14.1557C12.1001 14.0584 10.1913 13.6274 8.28241 11.7184Z" fill="#799F0C"/>
<path d="M15.8623 10.6898C15.4814 10.6898 15.1727 10.381 15.1727 10.0001C15.1695 7.14477 12.8557 4.83087 10.0006 4.82764C9.61972 4.82764 9.31097 4.51886 9.31097 4.13797C9.31097 3.75708 9.61972 3.44831 10.0006 3.44831C13.6171 3.4523 16.5479 6.3833 16.5519 10.0001C16.5519 10.381 16.2432 10.6898 15.8623 10.6898Z" fill="#799F0C"/>
<path d="M19.3104 10.6898C18.9295 10.6898 18.6208 10.381 18.6208 10.0001C18.6154 5.24119 14.7592 1.38465 10.0006 1.37932C9.61972 1.37932 9.31097 1.07055 9.31097 0.689662C9.31097 0.308772 9.61972 0 10.0006 0C15.5206 0.0060814 19.9939 4.47972 20 10.0001C20 10.183 19.9273 10.3584 19.798 10.4878C19.6687 10.6171 19.4933 10.6898 19.3104 10.6898Z" fill="#799F0C"/>
</svg>
