<svg width="53" height="63" viewBox="0 0 53 63" fill="none" xmlns="http://www.w3.org/2000/svg">
<path d="M47.1111 5.72727H34.8033C33.5667 2.40545 30.3278 0 26.5 0C22.6722 0 19.4333 2.40545 18.1967 5.72727H5.88889C2.65 5.72727 0 8.30455 0 11.4545V57.2727C0 60.4227 2.65 63 5.88889 63H47.1111C50.35 63 53 60.4227 53 57.2727V11.4545C53 8.30455 50.35 5.72727 47.1111 5.72727ZM26.5 5.72727C28.1194 5.72727 29.4444 7.01591 29.4444 8.59091C29.4444 10.1659 28.1194 11.4545 26.5 11.4545C24.8806 11.4545 23.5556 10.1659 23.5556 8.59091C23.5556 7.01591 24.8806 5.72727 26.5 5.72727ZM47.1111 57.2727H5.88889V11.4545H11.7778V20.0455H41.2222V11.4545H47.1111V57.2727Z" fill="white"/>
</svg>
