<svg width="29" height="26" viewBox="0 0 29 26" fill="none" xmlns="http://www.w3.org/2000/svg">
<path d="M27.7336 0.19915C26.425 -0.516021 24.9653 0.863237 24.1097 1.68058C22.1468 3.62175 20.4859 5.86944 18.6235 7.91278C16.5599 10.1605 14.6473 12.4081 12.5334 14.6048C11.3254 15.8308 10.0168 17.159 9.21149 18.6915C7.39954 16.9035 5.83926 14.9623 3.82599 13.3788C2.36637 12.255 -0.0495577 11.4376 0.00077406 14.1451C0.101438 17.6699 3.17168 21.4501 5.43661 23.851C6.39291 24.8726 7.6512 25.9454 9.11082 25.9965C10.8724 26.0986 12.6844 23.9531 13.7413 22.7782C15.6037 20.7349 17.1137 18.436 18.8249 16.3417C21.0395 13.5832 23.3044 10.8756 25.4687 8.06603C26.8276 6.32919 31.1058 2.03808 27.7336 0.19915ZM2.21529 13.9407C2.16496 13.9407 2.11463 13.9407 2.01396 13.9917C1.81264 13.9407 1.66164 13.8896 1.46031 13.7874C1.61131 13.6852 1.86297 13.7363 2.21529 13.9407Z" fill="#EB5757"/>
</svg>
