<svg width="26" height="26" viewBox="0 0 26 26" fill="none" xmlns="http://www.w3.org/2000/svg">
<path d="M25.9551 0.365181C25.8641 0.1442 25.6478 0 25.4091 0C2.47595 0 0 9.50419 0 13.5909C0 15.0611 0.326182 16.4343 0.970292 17.6717C1.06956 17.8631 1.26573 17.9848 1.48084 17.9896C1.68409 17.9837 1.89804 17.8821 2.00556 17.6942C3.55377 15.0185 7.93828 8.41452 15.1793 4.90574C15.476 4.76392 15.8305 4.88563 15.9711 5.17758C16.1129 5.47185 15.99 5.82639 15.697 5.96821C15.151 6.23296 14.6262 6.5213 14.1121 6.82028C13.916 6.9349 13.7257 7.05666 13.5331 7.17599C13.2435 7.35564 12.9575 7.53879 12.6786 7.72792C12.4009 7.91466 12.1267 8.10612 11.8572 8.30228C11.7733 8.36372 11.693 8.42637 11.6102 8.48903C4.40346 13.8592 0 22.4261 0 25.4091C0 25.7353 0.264746 26 0.590928 26C0.91711 26 1.18186 25.7353 1.18186 25.4091C1.18186 24.4565 1.83067 22.5255 3.05857 20.2221C4.84077 21.6793 7.23866 22.4546 10.0455 22.4546C17.6339 22.4546 19.2235 15.2336 20.0768 11.3537C21.2255 6.13246 23.7534 3.08221 25.8263 1.00813C25.9965 0.839108 26.0461 0.586163 25.9551 0.365181Z" fill="white"/>
</svg>
