<svg width="63" height="45" viewBox="0 0 63 45" fill="none" xmlns="http://www.w3.org/2000/svg">
<path d="M54.4091 11.25H45.8182V0H5.72727C2.57727 0 0 2.53125 0 5.625V36.5625H5.72727C5.72727 41.2312 9.56455 45 14.3182 45C19.0718 45 22.9091 41.2312 22.9091 36.5625H40.0909C40.0909 41.2312 43.9282 45 48.6818 45C53.4355 45 57.2727 41.2312 57.2727 36.5625H63V22.5L54.4091 11.25ZM14.3182 40.7812C11.9414 40.7812 10.0227 38.8969 10.0227 36.5625C10.0227 34.2281 11.9414 32.3438 14.3182 32.3438C16.695 32.3438 18.6136 34.2281 18.6136 36.5625C18.6136 38.8969 16.695 40.7812 14.3182 40.7812ZM52.9773 15.4688L58.59 22.5H45.8182V15.4688H52.9773ZM48.6818 40.7812C46.305 40.7812 44.3864 38.8969 44.3864 36.5625C44.3864 34.2281 46.305 32.3438 48.6818 32.3438C51.0586 32.3438 52.9773 34.2281 52.9773 36.5625C52.9773 38.8969 51.0586 40.7812 48.6818 40.7812Z" fill="white"/>
</svg>
