<svg width="54" height="53" viewBox="0 0 54 53" fill="none" xmlns="http://www.w3.org/2000/svg">
<path d="M10.86 22.9372C15.18 31.27 22.14 38.0717 30.63 42.3411L37.23 35.8633C38.04 35.0683 39.24 34.8033 40.29 35.1567C43.65 36.2461 47.28 36.835 51 36.835C52.65 36.835 54 38.16 54 39.7794V50.0556C54 51.675 52.65 53 51 53C22.83 53 0 30.5928 0 2.94444C0 1.325 1.35 0 3 0H13.5C15.15 0 16.5 1.325 16.5 2.94444C16.5 6.625 17.1 10.1583 18.21 13.4561C18.54 14.4867 18.3 15.635 17.46 16.4594L10.86 22.9372Z" fill="white"/>
</svg>
