<svg width="53" height="52" viewBox="0 0 53 52" fill="none" xmlns="http://www.w3.org/2000/svg">
<path d="M49.3852 42.5455H40.9535C35.6403 42.5455 31.3175 38.3042 31.3175 33.0912C31.3175 27.8781 35.6403 23.6368 40.9535 23.6368H49.3852C50.051 23.6368 50.5897 23.1082 50.5897 22.455V18.9096C50.5897 16.4314 48.6305 14.4159 46.1551 14.2205L39.2374 2.36555C38.5964 1.26913 37.5612 0.485491 36.3225 0.16009C35.0898 -0.163095 33.8006 0.00664042 32.6973 0.636724L8.98304 14.1824H4.8181C2.1609 14.1824 0 16.3024 0 18.9096V47.2728C0 49.8799 2.16079 52 4.8181 52H45.7716C48.4288 52 50.5897 49.88 50.5897 47.2728V43.7274C50.5897 43.0741 50.051 42.5455 49.3852 42.5455ZM40.7313 9.68458L43.3559 14.1824H32.8573L40.7313 9.68458ZM13.771 14.1824L33.9099 2.67943C34.4546 2.36666 35.0909 2.28356 35.6991 2.44288C36.3143 2.60442 36.8272 2.99452 37.146 3.5404L37.1485 3.54473L18.5263 14.1824H13.771Z" fill="white"/>
<path d="M49.3865 26.0005H40.9548C36.9695 26.0005 33.7277 29.1812 33.7277 33.0913C33.7277 37.0015 36.9695 40.1821 40.9548 40.1821H49.3865C51.3791 40.1821 53 38.5918 53 36.6367V29.5459C53 27.5909 51.3791 26.0005 49.3865 26.0005ZM40.9548 35.4549C39.6268 35.4549 38.5458 34.3943 38.5458 33.0913C38.5458 31.7884 39.6268 30.7278 40.9548 30.7278C42.2828 30.7278 43.3638 31.7884 43.3638 33.0913C43.3639 34.3943 42.2829 35.4549 40.9548 35.4549Z" fill="white"/>
</svg>
